# AST/ASF file generated using VICON BodyLanguage
# -----------------------------------------------
:version 1.10
:name VICON
:units
  mass 1.0
  length 0.45
  angle deg
:documentation
   .ast/.asf automatically generated from VICON data using
   VICON BodyBuilder and BodyLanguage model FoxedUp or BRILLIANT.MOD
:root
   order TX TY TZ RX RY RZ
   axis XYZ
   position 0 0 0  
   orientation 0 0 0 
:bonedata
  begin
     id 1 
     name lhipjoint
     direction 0.650112 -0.723553 0.232005 
     length 2.45805 
     axis 0 0 0  XYZ
  end
  begin
     id 2 
     name lfemur
     direction 0.34202 -0.939693 0  
     length 7.00073  
     axis 0 0 20  XYZ
    dof rx ry rz
    limits (-160.0 20.0)
           (-70.0 70.0)
           (-60.0 70.0)
  end
  begin
     id 3 
     name ltibia
     direction 0.34202 -0.939693 0   
     length 7.8748   
     axis 0 0 20   XYZ
    dof rx
    limits (-10.0 170.0)
  end
  begin
     id 4 
     name lfoot
     direction 0.0542825 -0.14914 0.987325   
     length 1.75978   
     axis -90 7.62852e-016 20   XYZ
    dof rx rz
    limits (-45.0 90.0)
           (-70.0 20.0)
  end
  begin
     id 5 
     name ltoes
     direction 1.53509e-011 -4.21906e-011 1   
     length 0.893912   
     axis -90 7.62852e-016 20   XYZ
    dof rx
    limits (-90.0 20.0)
  end
  begin
     id 6 
     name rhipjoint
     direction -0.637897 -0.733345 0.235145   
     length 2.42522  
     axis 0 0 0  XYZ 
  end
  begin
     id 7 
     name rfemur
     direction -0.34202 -0.939693 0   
     length 7.02549   
     axis 0 0 -20   XYZ
    dof rx ry rz
    limits (-160.0 20.0)
           (-70.0 70.0)
           (-70.0 60.0)
  end
  begin
     id 8 
     name rtibia
     direction -0.34202 -0.939693 0   
     length 7.71512   
     axis 0 0 -20   XYZ
    dof rx
    limits (-10.0 170.0)
 end
 begin
     id 9 
     name rfoot
     direction -0.0822618 -0.226012 0.970645   
     length 1.90014  
     axis -90 -7.62852e-016 -20   XYZ
    dof rx rz
    limits (-45.0 90.0)
           (-20.0 70.0)
  end
  begin
     id 10 
     name rtoes
     direction -1.53542e-011 -4.21872e-011 1   
     length 0.957341   
     axis -90 -7.62852e-016 -20   XYZ
    dof rx
    limits (-90.0 20.0)
  end
  begin
     id 11 
     name lowerback
     direction -0.0022947 0.999774 -0.0211557   
     length 1.89909   
     axis 0 0 0   XYZ
    dof rx ry rz
    limits (-20.0 45.0)
           (-30.0 30.0)
           (-30.0 30.0)
  end
  begin
     id 12 
     name upperback
     direction 0.0107737 0.998635 0.0511027   
     length 1.8853   
     axis 0 0 0   XYZ
    dof rx ry rz
    limits (-20.0 45.0)
           (-30.0 30.0)
           (-30.0 30.0)
  end
  begin
     id 13 
     name thorax
     direction 0.011824 0.998136 0.0598754   
     length 1.88911   
     axis 0 0 0   XYZ
    dof rx ry rz
    limits (-20.0 45.0)
           (-30.0 30.0)
           (-30.0 30.0)
  end
  begin
     id 14 
     name lowerneck
     direction -0.0685355 0.990319 0.120714   
     length 1.91222   
     axis 0 0 0   XYZ
    dof rx ry rz
    limits (-20.0 45.0)
           (-30.0 30.0)
           (-30.0 30.0)
  end
  begin
     id 15 
     name upperneck
     direction 0.0886204 0.955665 -0.280805   
     length 1.92526   
     axis 0 0 0   XYZ
    dof rx ry rz
    limits (-20.0 45.0)
           (-30.0 30.0)
           (-30.0 30.0)
  end
  begin
     id 16
     name head
     direction 0.0233423 0.993502 -0.111393  
     length 1.96056  
     axis 0 0 0   XYZ
    dof rx ry rz
    limits (-20.0 45.0)
           (-30.0 30.0)
           (-30.0 30.0)
  end
  begin
     id 17 
     name lclavicle
     direction 0.941873 0.32922 0.0670041  
     length 3.31705  
     axis 0 0 0   XYZ
    dof ry rz
    limits (-20.0 10.0)
           (0.0 20.0)
  end
  begin
     id 18 
     name lhumerus
     direction 1 -4.4898e-011 3.38707e-028   
     length 5.29277   
     axis 180 -30 -90   XYZ
    dof rx ry rz
    limits (-60.0 90.0)
           (-90.0 90.0)
           (-90.0 90.0)
  end
  begin
     id 19
     name lradius
     direction 1 -4.48952e-011 1.63213e-028   
     length 2.85226   
     axis 180 -30 -90   XYZ
    dof rx
    limits (-10.0 170.0)
  end
  begin
     id 20
     name lwrist
     direction 1 -4.49001e-011 1.27856e-027   
     length 1.42613   
     axis -1.61767e-015 90 90   XYZ
    dof ry
    limits (-180.0 0.0)
 end
  begin
     id 21 
     name lhand
     direction 1 -4.48976e-011 2.55931e-027   
     length 0.602097   
     axis -1.63363e-015 90 90   XYZ
    dof rx rz
    limits (-90.0 90.0)
           (-45.0 45.0)
  end
  begin
     id 22 
     name lfingers
     direction 1 -4.48986e-011 5.11684e-027   
     length 0.485426   
     axis -3.26723e-015 90 90   XYZ
    dof rx
    limits (0.0 90.0)
  end
  begin
     id 23
     name lthumb
     direction 0.707107 -6.34915e-011 0.707107   
     length 0.696978   
     axis -90 45 -2.25915e-014   XYZ
    dof rx rz
    limits (-45.0 45.0)
           (-45.0 45.0)
  end
  begin
     id 24 
     name rclavicle
     direction -0.939974 0.327078 0.0973096   
     length 3.10337  
     axis 0 0 0   XYZ 
    dof ry rz
    limits (-10.0 20.0)
           (-20.0 0.0)
  end
  begin
     id 25 
     name rhumerus
     direction -1 -4.48975e-011 1.83745e-027  
     length 5.13304   
     axis 180 30 90   XYZ
    dof rx ry rz
    limits (-90.0 60.0)
           (-90.0 90.0)
           (-90.0 90.0)
  end
  begin
     id 26 
     name rradius
     direction -1 -4.48977e-011 7.1775e-029   
     length 2.74305   
     axis 180 30 90   XYZ
    dof rx
    limits (-10.0 170.0)
  end
  begin
     id 27 
     name rwrist
     direction -1 -4.48977e-011 1.27963e-027   
     length 1.37152   
     axis -1.61767e-015 -90 -90   XYZ
    dof ry
    limits (-180.0 0.0)
  end
  begin
     id 28
     name rhand
     direction -1 -4.4888e-011 2.56782e-027   
     length 0.767976   
     axis -1.63363e-015 -90 -90   XYZ
    dof rx rz
    limits (-90.0 90.0)
           (-45.0 45.0)
  end
  begin
     id 29
     name rfingers
     direction -1 -4.48947e-011 5.12384e-027   
     length 0.619162   
     axis -3.26723e-015 -90 -90   XYZ
    dof rx
    limits (0.0 90.0)
  end
  begin
     id 30
     name rthumb
     direction -0.707107 -6.34857e-011 0.707107   
     length 0.888997   
     axis -90 -45 2.25915e-014   XYZ
    dof rx rz
    limits (-45.0 45.0)
           (-45.0 45.0)
  end
:hierarchy
  begin
    root lhipjoint rhipjoint lowerback
    lhipjoint lfemur
    lfemur ltibia
    ltibia lfoot
    lfoot ltoes
    rhipjoint rfemur
    rfemur rtibia
    rtibia rfoot
    rfoot rtoes
    lowerback upperback
    upperback thorax
    thorax lowerneck lclavicle rclavicle
    lowerneck upperneck
    upperneck head
    lclavicle lhumerus
    lhumerus lradius
    lradius lwrist
    lwrist lhand lthumb
    lhand lfingers
    rclavicle rhumerus
    rhumerus rradius
    rradius rwrist
    rwrist rhand rthumb
    rhand rfingers
  end

#!OML:ASF F:\VICON\USERDATA\INSTALL\rory3\rory3.ASF
:FULLY-SPECIFIED
:DEGREES
1709
root -0.456161 16.3551 -0.129451 -16.1725 2.93645 -6.86287
lowerback -2.633 -2.02096 -0.596222
upperback 4.19865 -2.5639 -2.17385
thorax 5.75443 -1.24558 -2.11733
lowerneck -1.10311 -8.67694 -23.1033
upperneck 29.4066 -12.946 10.3297
head 12.1667 -7.55612 6.23577
rclavicle 2.98177e-015 -1.59028e-015
rhumerus 22.2011 -25.716 -29.0068
rradius 96.6937
rwrist 13.6153
rhand -24.7752 14.8046
rfingers 7.12502
rthumb 1.72872 -15.1681
lclavicle 2.98177e-015 -1.59028e-015
lhumerus 13.527 8.62761 36.9405
lradius 92.7494
lwrist 13.2143
lhand -21.206 26.3462
lfingers 7.12502
lthumb 5.1754 56.263
rfemur 7.6508 -0.356721 28.6108
rtibia 34.3119
rfoot -25.7842 -8.395
rtoes -15.2706
lfemur 1.61748 -5.65137 -8.64285
ltibia 42.7872
lfoot -27.7212 -3.63272
ltoes -19.9661
1710
root -0.452561 16.3551 -0.140653 -16.1111 2.77307 -6.98271
lowerback -2.6281 -1.88834 -0.536731
upperback 4.20549 -2.38789 -2.20027
thorax 5.76051 -1.1549 -2.16501
lowerneck -1.0007 -8.70741 -23.0951
upperneck 29.4129 -13.0043 10.2999
head 12.1588 -7.58812 6.21728
rclavicle -1.98785e-015 0
rhumerus 21.0202 -25.0606 -28.7194
rradius 96.5929
rwrist 13.4261
rhand -24.8204 14.8227
rfingers 7.12502
rthumb 1.68505 -15.1504
lclavicle -1.98785e-015 0
lhumerus 14.3534 8.87699 36.5579
lradius 93.077
lwrist 12.9914
lhand -21.2612 26.305
lfingers 7.12502
lthumb 5.12215 56.2231
rfemur 7.50578 -0.325409 28.725
rtibia 34.3289
rfoot -25.7675 -8.2674
rtoes -15.4112
lfemur 1.51557 -5.65876 -8.53855
ltibia 42.8502
lfoot -27.7474 -3.26905
ltoes -20.7245
1711
root -0.445058 16.3531 -0.151267 -16.0693 2.6693 -7.08723
lowerback -2.62884 -1.79999 -0.472433
upperback 4.20963 -2.27186 -2.21911
thorax 5.76566 -1.09397 -2.21213
lowerneck -0.933106 -8.708 -23.1465
upperneck 29.4912 -12.9911 10.2103
head 12.1748 -7.60078 6.1957
rclavicle 2.18663e-015 -3.65764e-014
rhumerus 19.9839 -24.3283 -28.5773
rradius 96.3173
rwrist 13.2941
rhand -25.0825 14.8836
rfingers 7.12502
rthumb 1.43194 -15.0914
lclavicle 2.18663e-015 -3.65764e-014
lhumerus 15.1038 9.18504 36.0708
lradius 93.4358
lwrist 12.9953
lhand -21.3245 26.2651
lfingers 7.12502
lthumb 5.06104 56.1847
rfemur 7.39118 -0.358952 28.7739
rtibia 34.3528
rfoot -25.7398 -8.13201
rtoes -15.6789
lfemur 1.43073 -5.69189 -8.48012
ltibia 42.9095
lfoot -27.8037 -2.92378
ltoes -21.4037
1712
root -0.435887 16.3539 -0.158919 -16.0634 2.62605 -7.00524
lowerback -2.7084 -1.73652 -0.685927
upperback 4.2891 -2.17247 -2.20447
thorax 5.90709 -1.05313 -2.07571
lowerneck -0.876807 -8.692 -23.3485
upperneck 29.5458 -12.9423 10.1598
head 12.1934 -7.60778 6.21802
rclavicle -2.8625e-014 3.18055e-015
rhumerus 19.1285 -23.6911 -28.5187
rradius 96.0239
rwrist 12.9847
rhand -24.9576 15.1293
rfingers 7.12502
rthumb 1.5525 -14.8448
lclavicle -2.8625e-014 3.18055e-015
lhumerus 15.8356 9.67869 35.6463
lradius 93.7339
lwrist 13.0097
lhand -21.6259 26.3611
lfingers 7.12502
lthumb 4.76996 56.2874
rfemur 7.35823 -0.458527 28.5759
rtibia 34.3726
rfoot -25.7879 -7.89642
rtoes -16.0301
lfemur 1.42903 -5.78346 -8.67942
ltibia 42.9361
lfoot -27.8106 -2.69537
ltoes -21.1725
1713
root -0.426977 16.356 -0.16659 -16.075 2.56404 -6.8751
lowerback -2.83255 -1.66896 -1.02018
upperback 4.44795 -2.05961 -2.14748
thorax 6.1639 -1.01204 -1.83033
lowerneck -0.963384 -8.70276 -23.5305
upperneck 29.5951 -12.8886 10.0809
head 12.2339 -7.60633 6.21988
rclavicle -3.18055e-015 -4.13472e-014
rhumerus 18.2925 -23.1447 -28.4768
rradius 95.672
rwrist 12.6907
rhand -24.6936 14.921
rfingers 7.12502
rthumb 1.80753 -15.0511
lclavicle -3.18055e-015 -4.13472e-014
lhumerus 16.6598 10.34 35.2934
lradius 93.93
lwrist 12.8639
lhand -21.9796 26.1928
lfingers 7.12502
lthumb 4.42846 56.1265
rfemur 7.34867 -0.536273 28.3311
rtibia 34.3886
rfoot -25.7832 -7.71565
rtoes -15.5094
lfemur 1.46262 -5.8495 -8.92828
ltibia 42.934
lfoot -27.8204 -2.25132
ltoes -22.068
1714
root -0.418903 16.3587 -0.174357 -16.0635 2.47105 -6.8908
lowerback -2.90267 -1.54203 -1.06999
upperback 4.5715 -1.88139 -2.15745
thorax 6.34054 -0.924847 -1.80456
lowerneck -1.00588 -8.74264 -23.5425
upperneck 29.6235 -12.9212 10.0521
head 12.2611 -7.62279 6.20346
rclavicle 9.74045e-015 2.22639e-014
rhumerus 17.1773 -22.6783 -28.4797
rradius 95.2651
rwrist 12.389
rhand -24.4623 14.5038
rfingers 7.12502
rthumb 2.03091 -15.4663
lclavicle 9.74045e-015 2.22639e-014
lhumerus 17.7672 10.9353 34.8697
lradius 94.0991
lwrist 12.8957
lhand -21.9516 26.0987
lfingers 7.12502
lthumb 4.45547 56.0319
rfemur 7.29576 -0.548533 28.2907
rtibia 34.3967
rfoot -25.7516 -7.63965
rtoes -15.1961
lfemur 1.45674 -5.89741 -8.98098
ltibia 42.9124
lfoot -27.7668 -2.05128
ltoes -22.0842
